<?xml version="1.0" standalone="no"?>
<!DOCTYPE svg PUBLIC "-//W3C//DTD SVG 20010904//EN"
 "http://www.w3.org/TR/2001/REC-SVG-20010904/DTD/svg10.dtd">
<svg version="1.0" xmlns="http://www.w3.org/2000/svg"
 width="600.000000pt" height="600.000000pt" viewBox="0 0 600.000000 600.000000"
 preserveAspectRatio="xMidYMid meet">
<metadata>
Created by potrace 1.14, written by Peter Selinger 2001-2017
</metadata>
<g transform="translate(0.000000,600.000000) scale(0.100000,-0.100000)"
fill="#000000" stroke="none">
<path d="M801 4901 c1 -138 5 -211 13 -220 8 -11 8 -13 0 -8 -8 5 -11 -30 -11
-128 0 -119 2 -133 16 -122 12 9 13 9 7 0 -5 -10 6 -13 46 -13 30 0 60 6 67
13 11 10 13 10 7 0 -4 -7 -3 -13 3 -13 6 0 9 99 8 273 l-2 272 268 -3 267 -2
0 80 c0 80 -5 91 -29 68 -11 -10 -13 -10 -7 0 5 9 -6 12 -46 12 -30 0 -60 -6
-67 -12 -11 -10 -13 -10 -7 0 5 9 -6 12 -46 12 -30 0 -60 -6 -67 -12 -11 -10
-13 -10 -7 0 5 9 -6 12 -46 12 -30 0 -60 -6 -67 -12 -11 -10 -13 -10 -7 0 6 9
-12 12 -74 12 -62 0 -79 -3 -74 -12 6 -10 5 -10 -7 -1 -9 7 -42 12 -77 12
l-61 -1 0 -207z m29 179 c0 -5 -5 -10 -11 -10 -5 0 -7 5 -4 10 3 6 8 10 11 10
2 0 4 -4 4 -10z m80 0 c0 -5 -5 -10 -11 -10 -5 0 -7 5 -4 10 3 6 8 10 11 10 2
0 4 -4 4 -10z m98 -25 c-3 -3 -9 2 -12 12 -6 14 -5 15 5 6 7 -7 10 -15 7 -18z
m240 0 c-3 -3 -9 2 -12 12 -6 14 -5 15 5 6 7 -7 10 -15 7 -18z m146 -53 c3 -5
-1 -9 -9 -9 -8 0 -12 4 -9 9 3 4 7 8 9 8 2 0 6 -4 9 -8z m-464 -26 c0 -2 -8
-10 -17 -17 -16 -13 -17 -12 -4 4 13 16 21 21 21 13z m0 -70 c0 -3 -4 -8 -10
-11 -5 -3 -10 -1 -10 4 0 6 5 11 10 11 6 0 10 -2 10 -4z m-85 -126 c3 -5 1
-10 -4 -10 -6 0 -11 5 -11 10 0 6 2 10 4 10 3 0 8 -4 11 -10z m99 -69 c-2 -3
-12 3 -22 13 -16 17 -16 18 5 5 12 -7 20 -15 17 -18z m-79 -111 c3 -5 1 -10
-4 -10 -6 0 -11 5 -11 10 0 6 2 10 4 10 3 0 8 -4 11 -10z m5 -74 c0 -2 -7 -7
-16 -10 -8 -3 -12 -2 -9 4 6 10 25 14 25 6z m54 -72 c3 -8 2 -12 -4 -9 -6 3
-10 10 -10 16 0 14 7 11 14 -7z"/>
<path d="M4509 5108 c-1 -2 -2 -38 -3 -80 l-1 -78 267 0 268 0 1 -27 c1 -16 0
-36 -1 -46 -1 -10 4 -26 12 -35 7 -9 8 -13 2 -9 -16 9 -16 -133 -1 -152 9 -11
9 -13 1 -8 -16 9 -16 -133 -1 -152 9 -11 9 -13 0 -8 -8 5 -11 -9 -11 -53 l1
-60 79 0 c80 0 94 8 66 39 -8 9 -8 11 -2 8 16 -9 16 133 1 152 -9 11 -9 13 -1
8 16 -9 16 133 1 152 -9 11 -9 13 -1 8 16 -9 16 133 1 152 -9 11 -9 13 -1 8 9
-5 12 19 12 88 0 85 -2 94 -16 83 -12 -10 -14 -10 -8 0 5 9 -6 12 -46 12 -30
0 -60 -6 -67 -12 -11 -10 -13 -10 -7 0 5 9 -6 12 -46 12 -30 0 -60 -6 -67 -12
-11 -10 -13 -10 -7 0 6 9 -12 12 -74 12 -62 0 -79 -3 -74 -12 6 -10 5 -10 -7
-1 -20 16 -162 16 -153 0 5 -8 3 -8 -7 1 -10 10 -106 18 -110 10z m81 -28 c0
-5 -5 -10 -11 -10 -5 0 -7 5 -4 10 3 6 8 10 11 10 2 0 4 -4 4 -10z m80 0 c0
-5 -5 -10 -11 -10 -5 0 -7 5 -4 10 3 6 8 10 11 10 2 0 4 -4 4 -10z m80 0 c0
-5 -5 -10 -11 -10 -5 0 -7 5 -4 10 3 6 8 10 11 10 2 0 4 -4 4 -10z m98 -25
c-3 -3 -9 2 -12 12 -6 14 -5 15 5 6 7 -7 10 -15 7 -18z m240 0 c-3 -3 -9 2
-12 12 -6 14 -5 15 5 6 7 -7 10 -15 7 -18z m77 -35 c3 -5 1 -10 -4 -10 -6 0
-11 5 -11 10 0 6 2 10 4 10 3 0 8 -4 11 -10z m-615 -16 c0 -8 -19 -13 -24 -6
-3 5 1 9 9 9 8 0 15 -2 15 -3z m160 0 c0 -8 -19 -13 -24 -6 -3 5 1 9 9 9 8 0
15 -2 15 -3z m455 -144 c3 -5 1 -10 -4 -10 -6 0 -11 5 -11 10 0 6 2 10 4 10 3
0 8 -4 11 -10z m-75 -120 c0 -5 -2 -10 -4 -10 -3 0 -8 5 -11 10 -3 6 -1 10 4
10 6 0 11 -4 11 -10z m75 -40 c3 -5 1 -10 -4 -10 -6 0 -11 5 -11 10 0 6 2 10
4 10 3 0 8 -4 11 -10z m-75 -120 c0 -5 -2 -10 -4 -10 -3 0 -8 5 -11 10 -3 6
-1 10 4 10 6 0 11 -4 11 -10z m75 -40 c3 -5 1 -10 -4 -10 -6 0 -11 5 -11 10 0
6 2 10 4 10 3 0 8 -4 11 -10z m-75 -120 c0 -5 -2 -10 -4 -10 -3 0 -8 5 -11 10
-3 6 -1 10 4 10 6 0 11 -4 11 -10z"/>
<path d="M2154 4401 c-2 -2 -4 -640 -4 -1418 l0 -1413 158 0 159 0 13 86 c7
48 15 98 19 111 6 23 7 23 26 6 163 -149 370 -241 556 -247 107 -4 203 11 292
45 200 77 343 202 461 406 164 281 189 756 57 1103 -50 133 -169 293 -268 361
-233 161 -553 176 -821 40 -68 -35 -187 -117 -222 -154 -37 -39 -47 -34 -43
21 2 26 6 274 10 552 l5 505 -196 0 c-109 0 -199 -2 -202 -4z m1028 -1171
c167 -31 275 -137 342 -335 43 -127 54 -403 22 -553 -104 -481 -530 -635 -933
-338 l-63 46 0 463 0 464 42 42 c89 92 230 177 339 205 70 17 173 20 251 6z"/>
<path d="M813 1353 c-6 -13 -9 -648 -4 -694 1 -4 48 -7 106 -7 80 -1 104 2 98
11 -5 9 -3 9 8 1 10 -8 86 -12 247 -12 l232 0 0 80 0 80 -37 -2 c-21 -1 -142
-2 -270 -1 -225 1 -232 2 -228 21 2 11 -1 22 -6 26 -6 3 -6 11 -1 17 11 16 9
268 -2 286 -6 9 -5 12 0 8 12 -7 12 153 0 172 -7 10 -5 12 5 6 10 -6 11 -5 3
4 -12 13 -104 21 -104 8 0 -4 -9 -3 -20 3 -15 8 -21 7 -27 -7z m37 -53 c0 -5
-2 -10 -4 -10 -3 0 -8 5 -11 10 -3 6 -1 10 4 10 6 0 11 -4 11 -10z m100 -16
c0 -8 -19 -13 -24 -6 -3 5 1 9 9 9 8 0 15 -2 15 -3z m-5 -44 c3 -5 1 -10 -4
-10 -6 0 -11 5 -11 10 0 6 2 10 4 10 3 0 8 -4 11 -10z m-91 -78 c3 -5 -1 -9
-9 -9 -8 0 -12 4 -9 9 3 4 7 8 9 8 2 0 6 -4 9 -8z m-13 -75 c-10 -9 -11 -8 -5
6 3 10 9 15 12 12 3 -3 0 -11 -7 -18z m104 -95 c-3 -3 -11 0 -18 7 -9 10 -8
11 6 5 10 -3 15 -9 12 -12z m5 -66 c0 -2 -7 -7 -16 -10 -8 -3 -12 -2 -9 4 6
10 25 14 25 6z m-62 -31 c-3 -3 -9 2 -12 12 -6 14 -5 15 5 6 7 -7 10 -15 7
-18z m-38 -75 c0 -5 -2 -10 -4 -10 -3 0 -8 5 -11 10 -3 6 -1 10 4 10 6 0 11
-4 11 -10z m100 -16 c0 -8 -19 -13 -24 -6 -3 5 1 9 9 9 8 0 15 -2 15 -3z m-5
-44 c3 -5 1 -10 -4 -10 -6 0 -11 5 -11 10 0 6 2 10 4 10 3 0 8 -4 11 -10z
m290 0 c3 -6 -1 -7 -9 -4 -18 7 -21 14 -7 14 6 0 13 -4 16 -10z m249 2 c3 -5
-1 -9 -9 -9 -8 0 -12 4 -9 9 3 4 7 8 9 8 2 0 6 -4 9 -8z m-484 -37 c-7 -8 -17
-15 -23 -15 -6 0 -2 7 9 15 25 19 30 19 14 0z m441 -38 c-10 -9 -11 -8 -5 6 3
10 9 15 12 12 3 -3 0 -11 -7 -18z m-156 -7 c3 -5 1 -10 -4 -10 -6 0 -11 5 -11
10 0 6 2 10 4 10 3 0 8 -4 11 -10z"/>
<path d="M5073 1350 c-2 -3 -9 -5 -15 -5 -13 0 -16 -255 -3 -275 5 -7 4 -11
-1 -7 -12 7 -11 -136 1 -145 7 -5 6 -8 0 -8 -12 0 -12 -40 0 -60 5 -9 4 -11
-3 -6 -8 4 -10 2 -6 -7 3 -8 1 -18 -5 -21 -5 -4 -124 -6 -264 -6 -232 0 -256
-2 -262 -17 -3 -10 -1 -19 4 -21 6 -2 11 -8 11 -13 0 -6 -4 -8 -8 -5 -4 2 -8
-11 -8 -30 0 -19 5 -34 11 -34 5 0 3 -5 -5 -10 -32 -21 17 -29 178 -29 123 0
161 3 155 12 -5 9 -3 9 8 0 9 -7 67 -11 179 -10 139 2 165 4 166 17 0 8 -5 21
-10 29 -7 10 -7 13 -1 9 6 -4 11 2 11 13 0 10 -5 19 -11 19 -5 0 -4 4 3 9 8 4
14 12 14 16 0 4 -6 12 -14 16 -7 5 -8 9 -2 9 11 0 13 95 1 106 -3 4 -3 12 0
18 12 18 12 36 2 36 -6 0 -7 6 -2 13 14 23 12 39 -5 33 -15 -5 -15 -4 -2 6 16
14 19 36 8 54 -4 6 -4 14 -1 18 11 11 10 46 0 39 -6 -4 -7 -1 -1 8 15 25 14
41 -4 35 -15 -5 -15 -4 -2 6 16 14 19 36 8 54 -4 6 -4 14 -1 18 12 12 12 36 0
36 -8 0 -8 3 -2 8 15 10 12 38 -4 34 -7 -1 -10 2 -6 8 3 6 10 8 14 6 4 -3 8 1
8 9 0 10 -18 14 -65 17 -35 2 -66 1 -69 -2z m97 -124 c0 -3 -4 -8 -10 -11 -5
-3 -10 -1 -10 4 0 6 5 11 10 11 6 0 10 -2 10 -4z m-80 -86 c0 -5 -2 -10 -4
-10 -3 0 -8 5 -11 10 -3 6 -1 10 4 10 6 0 11 -4 11 -10z m-9 -53 c-10 -9 -11
-8 -5 6 3 10 9 15 12 12 3 -3 0 -11 -7 -18z m89 -21 c0 -3 -4 -8 -10 -11 -5
-3 -10 -1 -10 4 0 6 5 11 10 11 6 0 10 -2 10 -4z m-80 -86 c0 -5 -2 -10 -4
-10 -3 0 -8 5 -11 10 -3 6 -1 10 4 10 6 0 11 -4 11 -10z m0 -40 c0 -5 -5 -10
-11 -10 -5 0 -7 5 -4 10 3 6 8 10 11 10 2 0 4 -4 4 -10z m80 -34 c0 -3 -4 -8
-10 -11 -5 -3 -10 -1 -10 4 0 6 5 11 10 11 6 0 10 -2 10 -4z m-95 -146 c3 -6
-1 -7 -9 -4 -18 7 -21 14 -7 14 6 0 13 -4 16 -10z m-235 -35 c-7 -8 -17 -15
-23 -15 -6 0 -2 7 9 15 25 19 30 19 14 0z"/>
</g>
</svg>
